<?xml version="1.0" encoding="utf-8"?>
<!-- Generator: Adobe Illustrator 19.2.1, SVG Export Plug-In . SVG Version: 6.00 Build 0)  -->
<svg version="1.1" id="layer" xmlns="http://www.w3.org/2000/svg" xmlns:xlink="http://www.w3.org/1999/xlink" x="0px" y="0px"
	 viewBox="0 0 652 652" style="enable-background:new 0 0 652 652;" xml:space="preserve">
<style type="text/css">
	.st0{fill:#E62310;}
</style>
<path class="st0" d="M212.3,486.7c0,46.8-38,84.8-84.8,84.8c-46.8,0-84.8-37.9-84.8-84.8c0-46.8,38-84.8,84.8-84.8
	C174.3,401.9,212.3,439.9,212.3,486.7"/>
<path class="st0" d="M228.3,142.5l10.9-10.9c83.2-83.2,206.7-80,295,8.3c77.4,77.4,83.8,191.3,15.4,259.8
	c-20.5,20.5-47.3,35.8-76.1,42.9c-27.5,7-44.8,7.7-101.7,5.8c-64.6-1.9-87.7,1.9-108.8,19.2l-99.2-99.2c32-33.3,75.5-44.8,160-42.2
	c56.9,0.6,84.5-6.4,103-25c23-23,24.3-47.3,2.6-69.1c-27.5-27.5-53.8-23-94.7,16.6L228.3,142.5z"/>
</svg>
